<svg xmlns="http://www.w3.org/2000/svg" width="123" height="40" fill="none" viewBox="0 0 123 40">
<!-- SVG created with Arrow, by QuiverAI (https://quiver.ai) -->
  <path d="m113.8 19.35-0.1-0.03v-0.15c3.32-1.9 4.14-5 4.14-7.48 0-5.85-4.09-8.69-11.88-8.69h-15.15c-0.65 0-0.96 0.5-0.75 1.1l4.28 13.8c0.21 0.67 0.25 1.28 0 2.05l-4.35 15.89c-0.18 0.64 0.18 0.97 0.77 0.97h17.01c7.09 0 11.65-3.09 11.65-9.5 0-3.69-1.76-6.8-5.62-7.96zm-16-9.33c-0.27-0.74-0.09-1.07 0.59-1.07h7.99c3.12 0 4.38 1.66 4.38 3.98 0 2.58-1.76 4.38-4.83 4.38h-5.14c-0.65 0-0.99-0.33-1.19-1.02l-1.8-6.27zm10.06 20.7h-9.51c-0.6 0-0.84-0.37-0.6-1.08l2.01-6.39c0.18-0.64 0.6-0.87 1.28-0.87h6.69c3.46 0 5.07 1.94 5.07 4.32 0 2.41-1.71 4.02-4.94 4.02z" fill="url(#paint0_linear_1_52651)"/>
  <path d="m27.19 19.36-0.1-0.03v-0.15c3.32-1.9 4.14-5.01 4.14-7.48 0-5.85-3.51-8.69-12.53-8.69h-14.23c-0.66 0-0.96 0.5-0.75 1.1l4.15 14.04c0.21 0.67 0.21 1.11 0 1.81l-4.3 15.89c-0.19 0.64 0.18 0.97 0.77 0.97h16.64c7.08 0 11.78-2.85 11.78-9.27 0.01-3.69-1.71-7.03-5.57-8.19zm-16.42-9.33c-0.27-0.74-0.09-1.07 0.59-1.07h8.57c3.12 0 4.38 1.4 4.38 4.13 0 2.58-1.76 4.23-4.83 4.23h-5.4c-0.65 0-0.89-0.33-1.17-1.02l-2.14-6.27zm10.58 20.7h-9.61c-0.59 0-0.99-0.37-0.75-1.08l1.97-6.22c0.23-0.74 0.66-1.04 1.47-1.04h6.38c3.77 0 5.29 1.57 5.29 4.26 0 2.41-1.72 4.08-4.75 4.08z" fill="url(#paint1_linear_1_52651)"/>
  <path d="m66.62 9.05c-8.81 0-13.27 6.13-13.27 14.14 0 7.44 4.03 13.71 13.22 13.71 6.14 0 9.74-3.07 11.17-6.55 0.18-0.5-0.05-0.83-0.55-0.97l-4.52-1.29c-0.46-0.14-0.84 0.05-1.12 0.56-1 1.66-2.57 2.41-5.09 2.41-4.13 0-5.98-2.04-6.54-5.73h18.7c0.23 0 0.23-1.47 0.23-2.86 0-7.72-4.45-13.42-12.23-13.42zm-6.7 11c0.65-3.69 2.87-5.44 6.47-5.44 3.97 0 5.62 2.22 6 5.44h-12.47z" fill="url(#paint2_linear_1_52651)"/>
  <path d="m55.44 9.33h-5.65c-4.08 0-6.15 1.66-7.41 6.08h-0.05v-5.44c0-0.51-0.32-0.74-0.83-0.74h-5.03c-0.51 0-0.74 0.28-0.74 0.79v25.95c0 0.51 0.28 0.79 0.79 0.79h5.17c0.51 0 0.69-0.28 0.69-0.79v-13.92c0-3.88 1.48-5.69 5.34-5.69h3.46c0.6 0 0.83-0.6 0.97-0.93 0.91-2.36 2.13-3.92 3.74-4.99 0.6-0.43 0.42-1.11-0.45-1.11z" fill="url(#paint3_linear_1_52651)"/>
  <path d="m90.51 16.95h-8.03c-0.46 0-0.74 0.28-0.74 0.79v3.47c0 0.51 0.28 0.74 0.79 0.74h8.03c0.51 0 0.79-0.23 0.79-0.74l0.51-1.8-0.74-2c0-0.28-0.23-0.46-0.61-0.46z" fill="url(#paint4_linear_1_52651)"/>
  <defs>
    <linearGradient id="paint0_linear_1_52651" x1="3.5" x2="120.2" y1="20.14" y2="20.14" gradientUnits="userSpaceOnUse">
      <stop stop-color="#00C2FF" offset="0"/>
      <stop stop-color="#00E1C8" offset=".5"/>
      <stop stop-color="#00FF68" offset="1"/>
    </linearGradient>
    <linearGradient id="paint1_linear_1_52651" x1="3.5" x2="120.2" y1="19.91" y2="19.91" gradientUnits="userSpaceOnUse">
      <stop stop-color="#00C2FF" offset="0"/>
      <stop stop-color="#00E1C8" offset=".5"/>
      <stop stop-color="#00FF68" offset="1"/>
    </linearGradient>
    <linearGradient id="paint2_linear_1_52651" x1="3.5" x2="120.2" y1="22.98" y2="22.98" gradientUnits="userSpaceOnUse">
      <stop stop-color="#00C2FF" offset="0"/>
      <stop stop-color="#00E1C8" offset=".5"/>
      <stop stop-color="#00FF68" offset="1"/>
    </linearGradient>
    <linearGradient id="paint3_linear_1_52651" x1="3.5" x2="120.2" y1="23.04" y2="23.04" gradientUnits="userSpaceOnUse">
      <stop stop-color="#00C2FF" offset="0"/>
      <stop stop-color="#00E1C8" offset=".5"/>
      <stop stop-color="#00FF68" offset="1"/>
    </linearGradient>
    <linearGradient id="paint4_linear_1_52651" x1="3.5" x2="120.2" y1="19.45" y2="19.45" gradientUnits="userSpaceOnUse">
      <stop stop-color="#00C2FF" offset="0"/>
      <stop stop-color="#00E1C8" offset=".5"/>
      <stop stop-color="#00FF68" offset="1"/>
    </linearGradient>
  </defs>
</svg>